<svg width="18" height="18" viewBox="0 0 18 18" fill="none" xmlns="http://www.w3.org/2000/svg">
<path fill-rule="evenodd" clip-rule="evenodd" d="M9.00652 17.3268C10.1523 17.3268 11.2331 17.1055 12.2487 16.6628C13.2643 16.2331 14.1497 15.6406 14.905 14.8854C15.6602 14.1302 16.2526 13.2448 16.6823 12.2292C17.125 11.2266 17.3464 10.1458 17.3464 8.98698C17.3464 7.84115 17.125 6.76042 16.6823 5.7448C16.2526 4.74219 15.6602 3.86329 14.905 3.10808C14.1497 2.35287 13.2643 1.75391 12.2487 1.3112C11.2331 0.881516 10.1523 0.666672 9.00652 0.666672C7.86068 0.666672 6.77995 0.881516 5.76433 1.3112C4.7487 1.75391 3.86329 2.35287 3.10808 3.10808C2.35287 3.86329 1.76042 4.74219 1.33073 5.7448C0.888026 6.76042 0.666672 7.84115 0.666672 8.98698C0.666672 10.1458 0.888026 11.2266 1.33073 12.2292C1.76042 13.2448 2.35287 14.1302 3.10808 14.8854C3.86329 15.6406 4.7487 16.2331 5.76433 16.6628C6.77995 17.1055 7.86068 17.3268 9.00652 17.3268ZM3.75261 13.069C3.3099 12.5091 2.96485 11.8841 2.71745 11.194C2.47006 10.5039 2.34636 9.76823 2.34636 8.98698C2.34636 8.07553 2.51563 7.20964 2.85417 6.38933C3.20573 5.58204 3.68425 4.87891 4.28972 4.27995C4.89519 3.68099 5.60157 3.20573 6.40886 2.85417C7.21615 2.50261 8.08204 2.32683 9.00652 2.32683C9.77474 2.32683 10.5072 2.45053 11.2038 2.69792C11.9004 2.94532 12.5287 3.29037 13.0885 3.73308L3.75261 13.069ZM9.00652 15.6667C8.23829 15.6667 7.50586 15.5397 6.80925 15.2858C6.11264 15.0319 5.48438 14.6901 4.92448 14.2604L14.2604 4.90495C14.7031 5.46485 15.0482 6.0931 15.2956 6.78972C15.543 7.48633 15.6667 8.21875 15.6667 8.98698C15.6667 9.91146 15.4974 10.7773 15.1589 11.5846C14.8073 12.3919 14.3288 13.0983 13.7233 13.7038C13.1178 14.3092 12.4115 14.7878 11.6042 15.1393C10.7969 15.4909 9.93099 15.6667 9.00652 15.6667Z" fill="white"/>
</svg>
